<svg xmlns="http://www.w3.org/2000/svg" viewBox="0 0 128 128" role="img" aria-label="CareCompass AI">
  <defs>
    <linearGradient id="g" x1="0%" y1="0%" x2="100%" y2="100%">
      <stop offset="0%" stop-color="#8ff6e5"/>
      <stop offset="100%" stop-color="#46d8c7"/>
    </linearGradient>
  </defs>
  <rect width="128" height="128" rx="34" fill="#07131d"/>
  <rect x="14" y="14" width="100" height="100" rx="28" fill="url(#g)"/>
  <path d="M41 64c0-14 10-24 23-24 10 0 17 5 21 12l-10 5c-2-4-6-7-11-7-7 0-12 6-12 14 0 9 5 14 12 14 5 0 9-2 11-6l10 5c-4 7-11 12-21 12-13 0-23-10-23-25Z" fill="#05212a"/>
</svg>
